<svg width="56" height="52" viewBox="0 0 56 52" fill="none" xmlns="http://www.w3.org/2000/svg">
<path fill-rule="evenodd" clip-rule="evenodd" d="M44 38H34V33.799C38.559 32.87 42 28.829 42 23.999L41.998 13.998C41.997 6.28 35.717 0 27.999 0C20.28 0 14 6.28 14 13.999V24.001C14 29.515 18.486 34 24 34C25.104 34 26 33.104 26 32C26 30.896 25.104 30 23.999 30C20.691 30 18 27.309 18 24.001V13.999C18 8.485 22.486 4 28 4C33.512 4 37.997 8.485 37.998 13.999L38 23.999C38 27.308 35.308 30 32 30H30V42H44C47.721 42 50.856 44.553 51.747 48H4.253C5.144 44.553 8.279 42 12 42H24C25.104 42 26 41.104 26 40C26 38.896 25.104 38 24 38H12C5.383 38 0 43.383 0 50V52H56V50C56 43.383 50.617 38 44 38Z" fill="#005BFF"/>
</svg>
